<?xml version="1.0" encoding="utf-8"?>
<!-- Generator: Adobe Illustrator 23.1.0, SVG Export Plug-In . SVG Version: 6.00 Build 0)  -->
<svg version="1.1" id="图层_1" xmlns="http://www.w3.org/2000/svg" xmlns:xlink="http://www.w3.org/1999/xlink" x="0px" y="0px"
	 viewBox="0 0 450 200" style="enable-background:new 0 0 450 200;" xml:space="preserve">
<style type="text/css">
	.st0{clip-path:url(#SVGID_2_);}
	.st1{fill:#FFFFFF;}
	.st2{clip-path:url(#SVGID_4_);}
	.st3{fill:#CCCCCC;}
	.st4{fill:#278279;}
	.st5{fill:#295148;}
	.st6{opacity:0.7;clip-path:url(#SVGID_6_);}
	.st7{opacity:0.7;clip-path:url(#SVGID_8_);}
	.st8{fill:#0D6954;}
	.st9{fill:#0BA587;}
	.st10{opacity:0.3;clip-path:url(#SVGID_10_);}
	.st11{opacity:0.3;clip-path:url(#SVGID_12_);}
	.st12{opacity:0.3;clip-path:url(#SVGID_14_);}
	.st13{opacity:0.3;clip-path:url(#SVGID_16_);}
	.st14{opacity:0.3;clip-path:url(#SVGID_18_);}
	.st15{opacity:0.3;clip-path:url(#SVGID_20_);}
	.st16{fill:#F9FBED;}
</style>
<g transform="matrix(1.25,0,0,-1.25,0,750)">
	<g>
		<defs>
			<rect id="SVGID_1_" x="-34.6" y="420.2" width="200" height="200"/>
		</defs>
		<clipPath id="SVGID_2_">
			<use xlink:href="#SVGID_1_"  style="overflow:visible;"/>
		</clipPath>
		<g class="st0">
			<path class="st1" d="M-14.6,440.1h160v160h-160V440.1z"/>
			<g>
				<defs>
					<rect id="SVGID_3_" x="14.7" y="465.6" width="105.3" height="105.3"/>
				</defs>
				<clipPath id="SVGID_4_">
					<use xlink:href="#SVGID_3_"  style="overflow:visible;"/>
				</clipPath>
				<g class="st2">
					<path class="st3" d="M66.1,549.5c-7.9-7.9-8.8-20-3-28.9l0,0h0C57.3,529.5,58.3,541.6,66.1,549.5c0.3,0.3,0.6,0.6,0.9,0.8
						C66.7,550,66.4,549.8,66.1,549.5 M28.1,485.6L56,513.5c-0.1,0.2-0.1,0.4-0.1,0.6c0,0.4,0.1,0.9,0.5,1.2l3.2,3.2
						c-6.8,10.5-5.6,24.7,3.6,33.9c1.4,1.4,3,2.7,4.7,3.7c1.7,1.1,3.4,1.9,5.3,2.6c9.6,3.5,20.8,1.4,28.5-6.3
						c10.6-10.6,10.6-27.8,0-38.4c-9.2-9.2-23.4-10.4-33.9-3.6l-3.2-3.2c-0.5-0.5-1.2-0.6-1.8-0.3L34.8,479l-2.5-2.5l-0.3-0.3
						l-0.1,0.1l-6.5,6.5L28.1,485.6z"/>
				</g>
			</g>
			<path class="st4" d="M29.9,478.1l-0.1,0.1l0.4,0.2L29.9,478.1L29.9,478.1z"/>
			<path class="st4" d="M26.1,487.6l6.6-6.6l-2.5-2.5l-0.4-0.2l-6.5,6.5L26.1,487.6L26.1,487.6z"/>
			<path class="st5" d="M54,515.5c0.1-0.2,0.2-0.3,0.3-0.5l5.9-5.9c0.1-0.1,0.3-0.2,0.5-0.3L32.8,481l-6.6,6.6L54,515.5L54,515.5z"
				/>
			<path class="st4" d="M54,515.5c-0.1,0.2-0.1,0.4-0.1,0.6l0.6-0.2L54,515.5z"/>
			<path class="st4" d="M65.7,512.4l-3.2-3.2c-0.5-0.5-1.2-0.6-1.8-0.3l4.1,4.1C65.1,512.8,65.4,512.6,65.7,512.4"/>
			<path class="st4" d="M54.4,515.1c-0.1,0.1-0.2,0.3-0.3,0.5l0.4,0.4l9.8-2.6c0.2-0.1,0.3-0.2,0.5-0.3l-4.1-4.1
				c-0.2,0.1-0.3,0.2-0.5,0.3L54.4,515.1L54.4,515.1z"/>
			<path class="st4" d="M54.5,515.9l-0.6,0.2c0,0.4,0.1,0.9,0.5,1.2l3.2,3.2c0.2-0.3,0.4-0.6,0.6-0.9L54.5,515.9z"/>
			<g>
				<defs>
					<rect id="SVGID_5_" x="53.4" y="515.4" width="5.3" height="5.7"/>
				</defs>
				<clipPath id="SVGID_6_">
					<use xlink:href="#SVGID_5_"  style="overflow:visible;"/>
				</clipPath>
				<g class="st6">
					<path class="st4" d="M54.5,515.9l-0.6,0.2c0,0.4,0.1,0.9,0.5,1.2l3.2,3.2c0.2-0.3,0.4-0.6,0.6-0.9L54.5,515.9z"/>
				</g>
			</g>
			<path class="st4" d="M61.2,516c1-1,2-1.9,3.1-2.7l0,0l-9.8,2.6l3.7,3.7C59,518.3,60,517.1,61.2,516"/>
			<g>
				<defs>
					<rect id="SVGID_7_" x="53.2" y="512.5" width="12.3" height="7.9"/>
				</defs>
				<clipPath id="SVGID_8_">
					<use xlink:href="#SVGID_7_"  style="overflow:visible;"/>
				</clipPath>
				<g class="st7">
					<path class="st4" d="M61.2,516c1-1,2-1.9,3.1-2.7l0,0l-9.8,2.6l3.7,3.7C59,518.3,60,517.1,61.2,516"/>
				</g>
			</g>
			<path class="st8" d="M71.1,560.8l-5.3-2.6C67.5,559.2,69.3,560.1,71.1,560.8"/>
			<path class="st8" d="M65.4,513.6l2.4,2.4c8.9-5.9,21-4.9,28.9,3c0.3,0.3,0.5,0.6,0.8,0.9c0,0,0,0,0,0c0,0,0,0,0,0c0,0,0,0,0,0
				c8.1,9,7.8,23-0.9,31.7c-8.7,8.7-22.6,9-31.7,0.9c0,0,0,0,0,0c0,0,0,0,0,0c0,0,0,0,0,0c-0.3-0.3-0.6-0.5-0.9-0.8
				c-7.9-7.9-8.8-20-3-28.9l-2.4-2.4l-0.7,0.7l-0.5-0.5c-6.8,10.5-5.6,24.7,3.6,33.9c1.4,1.4,3,2.7,4.7,3.7l5.3,2.6
				c9.6,3.5,20.8,1.4,28.5-6.3c10.6-10.6,10.6-27.8,0-38.4c-9.2-9.2-23.4-10.4-33.9-3.6l0.5,0.5L65.4,513.6L65.4,513.6z"/>
			<path class="st8" d="M61.1,522.6c0.8-1.3,1.8-2.5,3-3.7c1.1-1.1,2.4-2.1,3.7-3l-2.4-2.4l-6.6,6.6L61.1,522.6z"/>
			<path class="st8" d="M65,513.1l1.1-0.3l-0.5-0.5c-0.3,0.2-0.6,0.4-0.9,0.6L65,513.1z"/>
			<path class="st8" d="M64.8,513c-0.2,0.1-0.3,0.2-0.5,0.3l0.7-0.2L64.8,513L64.8,513z"/>
			<path class="st8" d="M65.4,513.6l0.7-0.7L65.4,513.6z"/>
			<path class="st8" d="M58.7,520.2l6.6-6.6L58.7,520.2z"/>
			<path class="st8" d="M66.1,512.8l-1.1,0.3l0.4,0.4L66.1,512.8z"/>
			<path class="st8" d="M61.2,516c-1.1,1.1-2.1,2.3-3,3.6l0.6,0.6l6.6-6.6l-0.4-0.4l-0.7,0.2l0,0C63.2,514.1,62.2,515,61.2,516"/>
			<path class="st9" d="M65.9,520.7c-3.6,3.6-5.8,8.2-6.5,13c3.5-2.7,11.6-7.9,21-7.9c12.7,0,23,9.5,23,9.5s-5.6,5.2-13.7,7.9
				c-2.8,0.9-5.9,1.6-9.2,1.6c-3.3,0-6.4-0.6-9.2-1.6c-5.4-1.8-9.8-4.8-12-6.5c-0.1,5.6,1.9,11.3,5.9,15.7c9,8.1,23,7.8,31.7-0.9
				c8.7-8.7,9-22.6,0.9-31.7C88.5,511.7,74.6,512,65.9,520.7"/>
			<path class="st9" d="M65,552.3C65,552.3,65,552.3,65,552.3C65,552.3,65,552.3,65,552.3"/>
			<path class="st9" d="M97.5,519.8C97.5,519.8,97.5,519.8,97.5,519.8C97.5,519.8,97.5,519.8,97.5,519.8"/>
			<path class="st8" d="M65,552.3C65,552.3,65,552.3,65,552.3C65,552.3,65,552.3,65,552.3C65,552.3,65,552.3,65,552.3"/>
			<g>
				<defs>
					<rect id="SVGID_9_" x="65" y="552.3" width="0.1" height="0.1"/>
				</defs>
				<clipPath id="SVGID_10_">
					<use xlink:href="#SVGID_9_"  style="overflow:visible;"/>
				</clipPath>
				<g class="st10">
					<path class="st9" d="M65,552.3C65,552.3,65,552.3,65,552.3C65,552.3,65,552.3,65,552.3C65,552.3,65,552.3,65,552.3"/>
				</g>
			</g>
			<path class="st8" d="M96.7,518.9c0.3,0.3,0.6,0.6,0.8,0.9C97.2,519.5,96.9,519.2,96.7,518.9c-7.9-7.9-20-8.8-28.9-3l0,0
				C76.7,510.1,88.8,511.1,96.7,518.9"/>
			<g>
				<defs>
					<rect id="SVGID_11_" x="64.1" y="511.2" width="37.1" height="9.5"/>
				</defs>
				<clipPath id="SVGID_12_">
					<use xlink:href="#SVGID_11_"  style="overflow:visible;"/>
				</clipPath>
				<g class="st11">
					<path class="st9" d="M96.7,518.9c0.3,0.3,0.6,0.6,0.8,0.9C97.2,519.5,96.9,519.2,96.7,518.9c-7.9-7.9-20-8.8-28.9-3l0,0
						C76.7,510.1,88.8,511.1,96.7,518.9"/>
				</g>
			</g>
			<path class="st8" d="M97.5,519.8C97.5,519.8,97.5,519.8,97.5,519.8C97.5,519.8,97.5,519.8,97.5,519.8
				C97.5,519.8,97.5,519.8,97.5,519.8"/>
			<g>
				<defs>
					<rect id="SVGID_13_" x="97.5" y="519.8" width="0.1" height="0.1"/>
				</defs>
				<clipPath id="SVGID_14_">
					<use xlink:href="#SVGID_13_"  style="overflow:visible;"/>
				</clipPath>
				<g class="st12">
					<path class="st9" d="M97.5,519.8C97.5,519.8,97.5,519.8,97.5,519.8C97.5,519.8,97.5,519.8,97.5,519.8
						C97.5,519.8,97.5,519.8,97.5,519.8"/>
				</g>
			</g>
			<path class="st8" d="M61.1,522.6L61.1,522.6L61.1,522.6c0.9-1.3,1.8-2.5,3-3.7c1.1-1.1,2.4-2.1,3.7-3l0,0c-1.3,0.8-2.5,1.8-3.7,3
				C63,520.1,62,521.3,61.1,522.6"/>
			<g>
				<defs>
					<rect id="SVGID_15_" x="60.3" y="515.1" width="8.3" height="8.3"/>
				</defs>
				<clipPath id="SVGID_16_">
					<use xlink:href="#SVGID_15_"  style="overflow:visible;"/>
				</clipPath>
				<g class="st13">
					<path class="st9" d="M61.1,522.6L61.1,522.6L61.1,522.6c0.9-1.3,1.8-2.5,3-3.7c1.1-1.1,2.4-2.1,3.7-3l0,0
						c-1.3,0.8-2.5,1.8-3.7,3C63,520.1,62,521.3,61.1,522.6"/>
				</g>
			</g>
			<path class="st9" d="M67.8,515.9l0.4,0.4l-6.6,6.6l-0.4-0.4c-5.9,8.9-4.9,21,3,28.9c0.3,0.3,0.6,0.6,0.9,0.8c0,0,0,0,0,0
				c0,0,0,0,0,0c-4-4.5-6-10.1-5.9-15.7c-1.1-0.8-1.7-1.4-1.7-1.4s0.7-0.6,1.9-1.6c0.7-4.7,2.8-9.3,6.5-13c8.7-8.7,22.6-9,31.7-0.8
				c0,0,0,0,0,0c0,0,0,0,0,0c-0.3-0.3-0.5-0.6-0.8-0.9C88.8,511.1,76.7,510.1,67.8,515.9"/>
			<g>
				<defs>
					<polygon id="SVGID_17_" points="97.5,552.3 57.4,552.3 57.4,512.2 97.5,512.2 97.5,552.3 					"/>
				</defs>
				<clipPath id="SVGID_18_">
					<use xlink:href="#SVGID_17_"  style="overflow:visible;"/>
				</clipPath>
				<g class="st14">
					<path class="st9" d="M67.8,515.9l0.4,0.4l-6.6,6.6l-0.4-0.4c-5.9,8.9-4.9,21,3,28.9c0.3,0.3,0.6,0.6,0.9,0.8c0,0,0,0,0,0
						c0,0,0,0,0,0c-4-4.5-6-10.1-5.9-15.7c-1.1-0.8-1.7-1.4-1.7-1.4s0.7-0.6,1.9-1.6c0.7-4.7,2.8-9.3,6.5-13
						c8.7-8.7,22.6-9,31.7-0.8c0,0,0,0,0,0c0,0,0,0,0,0c-0.3-0.3-0.5-0.6-0.8-0.9C88.8,511.1,76.7,510.1,67.8,515.9"/>
				</g>
			</g>
			<path class="st9" d="M68.2,516.4l-0.4-0.4c-1.3,0.9-2.5,1.8-3.7,3c-1.1,1.1-2.1,2.4-3,3.7l0.4,0.4L68.2,516.4z"/>
			<g>
				<defs>
					<rect id="SVGID_19_" x="60.2" y="515.1" width="8.9" height="8.9"/>
				</defs>
				<clipPath id="SVGID_20_">
					<use xlink:href="#SVGID_19_"  style="overflow:visible;"/>
				</clipPath>
				<g class="st15">
					<path class="st9" d="M68.2,516.4l-0.4-0.4c-1.3,0.9-2.5,1.8-3.7,3c-1.1,1.1-2.1,2.4-3,3.7l0.4,0.4L68.2,516.4z"/>
				</g>
			</g>
			<path class="st5" d="M59.1,536.6c0-0.4,0-0.9,0.1-1.3c0,0-0.1,0-0.1-0.1c0,0,0.1-0.1,0.1-0.1c2.9-2.3,11.3-8.3,21.2-8.3
				c10,0,18.5,6.2,21.3,8.4c-1.9,1.5-6.3,4.8-12.1,6.8c0,0.2,0,0.5,0,0.7c0,0.1,0,0.3,0,0.4c8.1-2.7,13.7-7.9,13.7-7.9
				s-10.3-9.5-23-9.5c-9.4,0-17.5,5.2-21,7.9c-1.2,0.9-1.9,1.6-1.9,1.6S58,535.8,59.1,536.6"/>
			<path class="st5" d="M71.1,542.7c0-0.2,0-0.5,0-0.7c-5.7-2-10.1-5.2-12-6.7c0,0.4,0,0.9-0.1,1.3c2.2,1.7,6.6,4.7,12,6.5
				C71.1,543,71.1,542.8,71.1,542.7"/>
			<path class="st16" d="M80.4,533.5c4.9,0,8.8,3.8,9.2,8.5c5.7-2,10.2-5.3,12.1-6.8c-2.8-2.2-11.3-8.4-21.3-8.4
				c-9.9,0-18.3,6-21.2,8.3c0,0.1,0,0.1,0,0.2c1.9,1.5,6.3,4.7,12,6.7C71.5,537.2,75.5,533.5,80.4,533.5"/>
			<path class="st5" d="M76.2,539.1c0.8,0,1.4,0.6,1.4,1.4c0,0.8-0.6,1.4-1.4,1.4c-0.8,0-1.4-0.6-1.4-1.4
				C74.8,539.7,75.4,539.1,76.2,539.1 M71.2,543.1c2.8,0.9,5.9,1.6,9.2,1.6c3.3,0,6.4-0.6,9.2-1.6c0-0.1,0-0.3,0-0.4
				c0-0.2,0-0.5,0-0.7c-0.4-4.8-4.4-8.5-9.2-8.5c-4.9,0-8.8,3.8-9.2,8.5c0,0.2,0,0.5,0,0.7C71.1,542.8,71.1,543,71.2,543.1"/>
			<path class="st1" d="M76.2,541.9c0.8,0,1.4-0.6,1.4-1.4c0-0.8-0.6-1.4-1.4-1.4c-0.8,0-1.4,0.6-1.4,1.4
				C74.8,541.3,75.4,541.9,76.2,541.9"/>
		</g>
	</g>
</g>
<g>
	<path d="M171,93.7l3.9-0.3c1.1,1.7,1.2,2.8,0.3,3.4c-0.8,0.4-1.6,0.8-2.5,1.1c-0.9,0.6-1.7,0.9-2.3,1.1l-0.3,0.3
		c-0.6,0.2-0.8,0.5-0.6,0.8v1.4c0,0.2,0.3,0.2,0.8,0c2.1-0.9,3.5-1.2,4.2-0.8c0.6,0.9,1.2,2,2,3.1c0.2,0.4,0.1,0.7-0.3,0.8
		c-1.5,0.8-3.6,1.3-6.2,1.7c-0.8,0.2-1.3,0.3-1.7,0.3c-0.4,0.2-0.5,0.6-0.3,1.1c0.4,0.4,0.8,0.7,1.4,0.8c2.4,1.1,3.7,2.2,3.9,3.1
		c-0.6,1.3-1,2-1.4,2c-0.8-0.2-2.1-0.3-3.9-0.3c-0.6,0.2-0.8,0.4-0.6,0.6c0.2,1.7,0.3,3.4,0.3,5.1s0,3.5,0,5.3
		c0,0.4-0.3,0.6-0.8,0.6c-2.3-0.9-5.3-3.2-9.3-6.8c-0.6,0.6-1.1,1.4-1.7,2.5c-0.4,0.4-0.7,0.8-0.8,1.1c-0.6,0.8-1,0.9-1.4,0.6
		c-0.9-0.4-2.3-1.2-3.9-2.5c-0.2-0.4-0.2-0.7,0-0.8c0.6-0.7,1.2-1.8,2-3.1c1.9-2.6,3.5-4.7,4.8-6.2c0.7-0.7,0.7-0.8-0.3-0.3
		c-0.6,0.2-1.3,0.5-2.3,0.8c-2.1,0.4-3.5,1-4.2,2c-0.4,0.4-1-0.1-2-1.4c-0.8-0.9-1-1.5-0.8-1.7c0-0.4,0.2-0.7,0.6-0.8l0.6,0.3l9-3.4
		c1.1-1.1,3.4-1.8,6.8-2c0-0.2,0-0.7,0-1.4c0-0.6-0.4-0.8-1.1-0.8c-0.4,0.2-2.3,0.7-5.9,1.4c-0.2,0-0.4,0.1-0.6,0.3
		c-0.4,0.4-0.7,0.5-0.8,0.3c-0.9-0.9-1.7-2.3-2.3-4.2c0-0.4,0.4-0.5,1.1-0.3c1.5-0.4,4-1.2,7.6-2.5c1.7-0.6,3-1,3.9-1.4
		c1.1-0.9,2-2.7,2.5-5.3c0-0.2,0-0.4,0-0.6c0-0.6-0.1-1-0.3-1.4c-0.6-0.2-1.2,0.2-2,1.1c-0.9,0.8-1.9,1.9-2.8,3.4
		c-0.9,1.7-1.8,2.6-2.5,2.8c-0.2,0.2-0.4,0.3-0.6,0.3c-0.6,0.4-0.9,0.3-1.1-0.3c-0.6-0.6-0.7-1.3-0.3-2.3c0.2-0.6,0.5-1.1,0.8-1.7
		c0.7-1.3,1.3-2.3,1.7-3.1c0-0.4-0.2-0.6-0.6-0.6c-1.5,0.6-2.9,1.3-4.2,2.3c-0.9-2.1-1.4-3.3-1.4-3.7c0-0.6,0.3-0.8,0.8-0.8
		c5.6-1.1,11.2-2.4,16.6-3.9c1.9-0.4,3.1-0.3,3.7,0.3c0,0.9,0.1,1.5,0.3,1.7c0.2,0.6-0.1,0.9-0.8,1.1c-0.2,0.2-0.7,0.4-1.4,0.6
		l-1.1,0.6c-0.6,0.4-0.6,0.6,0,0.6c0,0.2,0.2,0.4,0.6,0.6c1.9,0.8,2.8,1.3,2.8,1.7c-0.2,0.8-0.8,1.4-2,2c-0.4,0.4-0.7,0.6-0.8,0.6
		C171.9,91.6,171,92.7,171,93.7z M158.4,116.2c0,0.6,0.1,0.9,0.3,1.1h0.3c0.2,0.2,0.5,0.3,0.8,0.3c1.3,0.6,2.3,0.8,2.8,0.6
		c0.6,0,0.9-0.3,1.1-0.8c0.6-2.6,0.6-5.6,0-9c-1.7,0.4-2.9,0.6-3.7,0.6c-0.6,0.2-0.8,0.4-0.8,0.6
		C159.2,111.5,158.9,113.8,158.4,116.2z M171,78.5c-3.6-0.7-5.5-2.2-5.9-4.2c-0.2-1.5,0.7-3.4,2.5-5.6c0.9-0.7,1.6-0.9,2-0.6
		c0,0.8,0.4,1.8,1.1,3.1c0.6,0.9,0.9,1.6,1.1,2C173.2,76.5,172.9,78.3,171,78.5z M186.2,100.7l-3.7,1.7c-0.4,0.9-0.8,2.2-1.4,3.7
		c-0.6,1.5-0.9,2.6-1.1,3.4c0,0.2,0,0.4,0,0.6c0.6,0.8,0.7,1.3,0.6,1.7c-1.3,2.8-3.5,4.9-6.5,6.2c-0.2,0.2-0.6,0.4-1.1,0.6
		c-1.5,0.6-2.2,0.7-2,0.3l0.3-0.6c3.7-5.2,6.2-10.1,7.3-14.6s1.4-9.9,0.8-16.3c0-0.7,0.4-1.2,1.1-1.4c1.7-0.6,4.2-1.3,7.6-2.3
		c0.9-0.2,1.7-0.4,2.3-0.6c2.1-0.7,3.9-1.8,5.6-3.1c1.3,1.7,2,3.6,2,5.6c0,0.2-0.6,0.5-1.7,0.8l-0.8,0.6c-1.1,0.9-3.7,1.7-7.6,2.3
		l-2.3,0.6c-1.7,2.6-2.5,4.8-2.5,6.5c0,0.6,0.4,0.8,1.1,0.6c5.8-1.5,11.6-3,17.4-4.5c0.4-0.2,0.7-0.1,1.1,0.3
		c0.9,2.1,1.9,4.2,2.8,6.5c0,0.8-0.2,1.2-0.6,1.4c-0.8-0.2-1.5-0.2-2.3,0c-0.2,0-0.5,0-0.8,0c-1.5-0.2-3.1-0.4-4.8-0.6
		c-1.7,0-2.4,0.1-2.3,0.3c-1.3,9-1.8,14.7-1.4,17.2c0.2,0.9,0.3,1.5,0.3,1.7c0,0.4-0.2,1.2-0.6,2.5c-0.4,2.3-0.6,3.7-0.6,4.2
		c-0.2,0.7,0,2.1,0.6,3.9c0.2,0.9,0.4,1.8,0.6,2.5c0,0.4-0.4,0.7-1.1,0.8c-1.7-0.2-2.7-0.4-3.1-0.6c-0.2-0.6-0.4-1.8-0.6-3.7
		c-0.2-2.1-0.3-3.6-0.3-4.5c0-2.6,0-5.5,0-8.7c0-2.8-0.1-6.9-0.3-12.4C188.1,101.2,187.3,100.3,186.2,100.7z"/>
	<path d="M224.5,92c0-0.9-0.1-1.6-0.3-2c-0.4-1.1-0.6-2.3-0.6-3.4c0.2-0.9,1.5-1.1,3.9-0.6c3.2,0.9,4.7,2.1,4.5,3.4
		c-1.1,1.5-1.8,4.2-2,8.2c0,1.3-0.3,2.6-0.8,3.9c-1.1,0.9-1.6,6-1.4,15.2c-0.2,1.3-0.6,2.2-1.1,2.5c-0.6,0.2-1.4,0.3-2.5,0.3
		c-0.4-0.7-0.6-1.2-0.6-1.4c-0.2-4.5-0.1-10.4,0.3-17.7C224.3,95.9,224.5,93.1,224.5,92z M235.1,81.9c-0.4-0.2-1.2-0.5-2.5-0.8
		c-3.4-0.7-5.1-2.5-5.1-5.3c0.4-3,1.6-4.5,3.7-4.5c1.3,2.6,2.8,4.2,4.5,4.8c1.5,0.9,2.2,2.4,2,4.5C237.5,82,236.6,82.4,235.1,81.9z
		 M235.1,89.5c-0.2-1.3,0.1-2.2,0.8-2.5c2.3-0.2,4.5-0.4,6.8-0.6c2.8-0.2,6.4-1.3,10.7-3.4c1.5-0.7,2.4-0.9,2.8-0.6
		c0.2,0.8,0.7,1.4,1.4,2c1.1,1.3,1,2.3-0.3,3.1c-1.1,0.6-1.8,1.2-2,2c-0.8,3.8-1,5.4-0.8,5.1c0.4,2.4,0.5,4.9,0.3,7.3
		c1.9-0.2,3.3-0.4,4.2-0.6c0.7-0.2,1.3,0.4,1.7,1.7c0,0.9,0.2,1.6,0.6,2c0.6,0.9,0.6,1.5,0,1.7c-1.5-0.2-3.5-0.3-5.9-0.3
		c-0.9,0-1.3,0.4-1.1,1.1c-0.4,5.1-0.2,8.2,0.6,9.3c-0.6,0.8-1.2,1.1-2,1.1c-1.1-0.2-2.3-0.3-3.4-0.3c-0.8,0-0.8-1,0-3.1
		c0.6-2.8,0.7-5.3,0.6-7.6c-1.3,0-3.4,0.4-6.2,1.1c-0.4,0.2-1,0.4-2,0.6c-1.5,0.6-2.3,0.8-2.3,0.6c-3.4,0.6-5.4,1.1-6.2,1.7
		c-2.1-0.6-3.2-1.5-3.4-2.8c-0.2-0.7,0.1-1.1,0.8-1.1c1.1,0.2,3.1-0.2,5.9-1.1c-0.4-1.9-0.2-4.3,0.6-7.3c0.4-2.4,0.4-4.6,0-6.5
		C236.3,92,235.5,91.2,235.1,89.5z M240.5,77.7c0-1.3,0.3-2.2,0.8-2.5c1.3-0.7,3.3-1.3,5.9-1.7c3.2-0.4,5.9-0.8,8.2-1.4
		c3.4-0.6,6.6-0.6,9.6,0c1.7,0.8,3.6,1.3,5.6,1.7c1.5,0.2,2.3,0.8,2.3,2c-1.9,3.6-2.8,6.4-2.8,8.4c0,1.7,0.1,3.5,0.3,5.3
		c0,4.3,0,7.3,0,9c-0.4,3.6-0.6,7.1-0.6,10.7c0,1.3,0.3,2.7,0.8,4.2c0.4,2.6,0.5,4.8,0.3,6.5c-0.4,1.1-0.3,3.9,0.3,8.4
		c-0.4,0.6-1,0.7-2,0.6c-1.5-0.9-3.2-1.6-5.1-2c-0.9-0.2-2-0.6-3.1-1.1c-1.3-0.4-3.3-1-5.9-2c-0.6-0.4-1.1-0.7-1.7-1.1
		c-0.2,0-0.5-0.1-0.8-0.3c-0.6-0.6-1-0.9-1.4-1.1c-0.6-0.6-0.6-0.8,0-0.8c4.5,0.9,7.6,1.3,9.3,1.1c2.6,0.2,3.9-0.9,3.9-3.4
		c0-1.7,0-3.4,0-5.1c0-3.6,0-5.7,0-6.5c-0.6-2.4-0.8-4.5-0.8-6.2c0-0.7-0.1-2.5-0.3-5.3c0-4.7,0-8.4,0-11.3c0.2-5.6-2.3-8.1-7.3-7.3
		c-3.6,0.6-7.1,1.8-10.7,3.7c-1.5,0.9-2.6,1.2-3.4,0.8C241.5,79.7,241,78.6,240.5,77.7z M248.4,101.3c-2.6,0.2-4.8,0.5-6.5,0.8
		c-0.6,0.9-0.7,1.7-0.3,2.3c4.1-0.4,7-1,8.7-2c0.2,0,0.3-1.6,0.3-4.8c-0.2-4.3-0.3-6.8-0.3-7.6c-1.9,0-4.2,0.3-7,0.8
		c-0.6,0.4-0.8,0.9-0.6,1.7c1.5-0.2,3-0.3,4.5-0.3c0.9,0.8,1.3,1.8,1.1,3.1c-2.4,0.2-4.2,0.4-5.3,0.6c-0.9,0.6-1.3,1.5-1.1,2.8
		c2.3-0.2,4.1-0.4,5.6-0.6C248.3,98.9,248.5,100,248.4,101.3z"/>
	<path d="M291.4,92.8c3.7-0.4,6.8-1.1,9-2.3c1.1-3.2,1.6-9.6,1.4-19.1c1.7-1.3,3.5-0.8,5.3,1.4c-0.4,2.4-0.8,4.5-1.1,6.2
		c-0.9,4.7-1.2,7.7-0.8,9h0.6c0.4-0.2,0.7-0.3,1.1-0.3c1.3,0.9,2.1,2.4,2.3,4.5c-0.6,0.6-1.4,1.3-2.5,2.3c-0.4,0.4-0.7,0.6-0.8,0.6
		c-0.4,0.6-0.6,2.2-0.6,4.8c0.2,0,0.5-0.1,0.8-0.3c1.1-0.4,2-0.5,2.5-0.3c0.9,0.6,0.5,1.7-1.4,3.4c-0.2,0.2-0.4,0.4-0.6,0.6
		c-1.5,1.3-2.2,2.3-2,3.1c-0.2,7.9-0.3,14.7-0.3,20.5c0.2,0.4,0.3,0.7,0.3,0.8c0,0.7-0.7,0.9-2,0.6c-0.4-0.2-0.7-0.3-0.8-0.3
		c-0.4-0.2-0.7-0.4-0.8-0.6c-3.8-1.1-6.5-2.6-8.2-4.5c-0.6-0.4-0.7-0.7-0.3-0.8c0.6-0.2,1.2-0.2,2,0c3.9,1.5,6.1,0.9,6.5-1.7
		c0-0.6-0.2-3.2-0.6-7.9c0-0.6,0-1.1,0-1.7c-3.8,3.4-6.5,6.7-8.2,9.8l-0.3,0.6c-2.1,0.6-4.3-0.5-6.8-3.1c-1.3-0.7-1-1.8,0.8-3.1
		c3.7-3.4,8.5-7.3,14.3-11.8c0-2.3-0.1-3.4-0.3-3.4c-1.7,0-3.3,0.6-4.8,1.7c-0.6,0.2-0.9,0.3-1.1,0.3c-1.9-0.6-3.1-2.9-3.7-7
		C290.5,93.7,290.8,93,291.4,92.8z M326,103.5h2.5c4.9,0.9,6.9,2.2,6.2,3.7c-2.8,2.8-4.9,5.3-6.2,7.3c2.8,4.1,7.3,6.9,13.5,8.4
		c6.2,1.9,9.4,3.5,9.6,4.8c-1.9,0.9-4.7,1.4-8.4,1.4c-0.9,0-2.3-0.2-4.2-0.6c-1.9-0.4-3.3-0.6-4.2-0.6c-0.8,0-1.2-0.8-1.4-2.3
		c-0.8-3.2-3.5-5.3-8.2-6.5c-0.9-0.2-2.9,1.8-5.9,5.9c-0.2,0.4-1.3,0.5-3.4,0.3c-0.9-0.2-1.5-0.3-1.7-0.3c-3.8,0-6.4-1-7.9-3.1
		c-0.6-0.4-0.8-0.7-0.6-1.1c0.2-0.2,0.7-0.2,1.7,0c6.4,1.5,11.1,0,14.1-4.5c-2.4-1.3-5.4-2.6-9-3.9c-0.4-0.2-0.7-0.4-0.8-0.6
		c-0.8-0.6-0.6-2.1,0.6-4.5c0.4-0.9,0.9-1.1,1.7-0.6c1.1,1.3,3.3,2.6,6.5,3.9c2.1,0.8,3.6,1.3,4.5,1.7c1.5-3,1-5.1-1.4-6.2
		c-0.8,0-1.6,0.5-2.5,1.4c-0.8,0.6-1.2,0.9-1.4,1.1c-0.9,0.2-1.7-0.6-2.3-2.3c1.1-1.1,2.4-2,3.9-2.5v-2.5c-1.1,0-2.4,0.5-3.9,1.4
		c-0.9,0.6-1.5,0.6-1.7,0c-2.1-3.9-3.5-9.2-4.2-15.8c-0.2-0.2,1.1-1.1,3.9-2.8c1.3-0.7,2.7-1.7,4.2-2.8c1.3,1.1,1.7,2.5,1.1,4.2
		c-2.1,0.8-3.7,1.8-4.8,3.1c-0.2,0.2-0.2,0.8,0,1.7h3.4c0.7,0,1.1,0.6,1.1,1.7c0.2,1.1-1.2,2.1-4.2,2.8c0.2,2.1,0.6,3.2,1.1,3.4
		c0.9-0.2,2.5-0.7,4.8-1.4c0.2-2.1,0.3-5.6,0.3-10.7c0.2-5.6,0.4-10.8,0.6-15.5c1.3-1.7,2.9-1.5,4.8,0.6c-0.9,4.3-1.4,12.8-1.4,25.3
		c1.3-0.2,2.8-0.2,4.5,0c1.7-1.3,2.1-2.5,1.1-3.7c-0.4,0-0.9,0.1-1.7,0.3c-0.9,0-1.5-0.1-1.7-0.3c-1.1-0.9-1.2-2-0.3-3.1h0.6
		c2.3-0.6,3.8-0.8,4.8-0.8c0-1.5-0.7-2.4-2-2.8c-0.6,0-1.2,0.1-2,0.3c-0.6,0.2-0.9,0.3-1.1,0.3c-0.6-0.4-0.8-1.4-0.6-3.1
		c0.7-0.2,1.9-0.4,3.4-0.6c0.6-0.2,1-0.4,1.4-0.6c4.3-0.2,6.8,0.8,7.6,2.8c-0.4,0.4-1.1,2.3-2.3,5.9c-2.1,6.4-3.4,9.8-3.9,10.4
		c-0.2,0.2-0.8,0.2-2,0c-1.5-0.7-3.3-1.1-5.3-1.1C326.3,100.9,326,101.8,326,103.5z"/>
	<path d="M362.8,106.1c0.4-1.3,1.5-3.1,3.4-5.3c2.1-2.6,3.4-3.4,3.9-2.3c-0.6,3.8-0.7,6.9-0.3,9.6c0,1.3-1,1.7-3.1,1.1
		C364,108.2,362.6,107.2,362.8,106.1z M384.8,90.6l0.8-3.1c0-0.6-0.3-0.9-0.8-1.1c-1.3,0-3.3,0.7-5.9,2c-1.3-2.1-2.1-4.6-2.3-7.6
		c3.6-0.4,7.1-1,10.7-2c0-2.1,0.3-5.2,0.8-9.6c0-0.9,0.1-1.7,0.3-2.3c1.1-0.7,3.5-0.5,7,0.8c0.4,0.4,0.6,0.8,0.6,1.4
		c-1.5,2.1-2.4,4.9-2.8,8.4c2.3-0.6,4.7-1,7.3-1.4c0.7,0,1.5,1,2.3,3.1c0.9,2.4,1,3.8,0.3,3.9c-2.3,0-4.5,0-6.8,0
		c-3.9,0.6-5.6,2.3-5.1,5.1c2.6-0.2,6.8-0.3,12.7-0.3c0.6,0,2.2,1,4.8,3.1c0.9,0.6,1.8,1,2.5,1.4c1.7,0.9,3.6,2.7,5.6,5.3
		c1.7,2.1,2.3,3.3,1.7,3.7c-4.7,1.9-9.6,2.3-14.6,1.1c-0.8,0-1.2-0.1-1.4-0.3c0-0.4,0.3-0.7,0.8-0.8c4.7-1.5,6.9-3.5,6.8-5.9
		c-0.2-2.6-2-4-5.3-4.2c-4.1-0.2-8.8,0.3-14.1,1.4c0,0.4,0.1,0.9,0.3,1.7c0.4,0.8,0.5,1.2,0.3,1.4c-0.2,0.2-0.5,0.4-0.8,0.6
		c-0.9,0.8-2.4,2.2-4.5,4.2h0.3c3.4-0.2,5.2-0.6,5.3-1.1c0.2-0.2,0.7-0.7,1.7-1.4c0.6-0.6,1.9-2,3.9-4.2c1.7-0.4,3,0.6,3.9,2.8
		c-1.9,0.9-5.8,4.7-11.8,11.3c1.3,0.2,2.9-0.2,4.8-1.1c1.5-0.7,2.6-1.1,3.4-1.1c4.5-0.2,7.6,2.4,9.3,7.9c0,0.6-0.4,0.8-1.1,0.8
		c-4.5-0.4-6.5-0.9-5.9-1.7c-0.2-2.3-0.7-3.7-1.4-4.2c-1.1,0.8-2,2.3-2.5,4.8c0,0.2-0.2,0.3-0.6,0.3c-2.4,0-3.7,0.8-3.7,2.3
		c-0.4,2.4-0.5,5.2-0.3,8.2c0.2,2.6,0.7,5.2,1.4,7.9c0,0.7-0.4,1.1-1.1,1.1c-5.4-1.1-9.7-3-12.7-5.6c-0.8-0.8-1-1.2-0.8-1.4
		c0.2-0.2,0.8-0.2,2,0c3.6,1.1,5.5,0.8,5.9-0.8c0.2-0.7,0.3-1.8,0.3-3.1c0.2-1.3,0.3-3.6,0.3-6.8c-0.2-0.4-0.5-0.7-0.8-0.8
		c-2.8,0.2-4.7,1.2-5.6,3.1c-2.6,3.9-4.3,7.9-5.1,11.8c-0.8,0.6-2.9,0-6.5-1.7c-0.9-0.6-1-1.2-0.3-2c1.7-1.7,4.9-4.5,9.6-8.4
		l-0.8-1.1c-1.9-2.3-2.5-3.5-2-3.7c5.4-2.1,8.6-4.4,9.6-7c-0.8,0-3.2,0.9-7.3,2.8c-1.7-0.2-2.6-1.8-2.8-4.8c3.6-0.7,5.3-1.2,5.3-1.4
		c3-3.4,4.7-6.2,5.1-8.4c-1.7,0.6-4,1.5-7,2.8c-1.1,0.6-2.1,0.9-2.8,1.1c-1.3,0.2-2.2-0.3-2.5-1.4c0.7-1.7,1.7-2.4,2.8-2.3
		c0.9,0.6,3.8-0.4,8.7-2.8C384.3,91,384.6,90.8,384.8,90.6z M408.7,128c-0.6,1.3-1.3,1.7-2.3,1.1c-4.7-3.6-7.9-6.6-9.6-9
		c-0.6-0.7-0.8-1.3-0.8-1.7c0.2-0.2,0.7-0.3,1.7-0.3c5.2,1.3,8.7,2.4,10.4,3.4c0.7,0.8,0.9,2.2,0.6,4.2
		C408.7,126.3,408.7,127.1,408.7,128z"/>
</g>
<g>
</g>
<g>
</g>
<g>
</g>
<g>
</g>
<g>
</g>
<g>
</g>
<g>
</g>
<g>
</g>
<g>
</g>
<g>
</g>
<g>
</g>
<g>
</g>
<g>
</g>
<g>
</g>
<g>
</g>
</svg>
