<?xml version="1.0" encoding="utf-8"?>
<!-- Generator: Adobe Illustrator 23.1.0, SVG Export Plug-In . SVG Version: 6.00 Build 0)  -->
<svg version="1.1" id="图层_1" xmlns="http://www.w3.org/2000/svg" xmlns:xlink="http://www.w3.org/1999/xlink" x="0px" y="0px"
	 viewBox="0 0 170 35" style="enable-background:new 0 0 170 35;" xml:space="preserve">
<style type="text/css">
	.st0{clip-path:url(#SVGID_2_);}
	.st1{fill:#FFFFFF;}
	.st2{clip-path:url(#SVGID_4_);}
	.st3{fill:#CCCCCC;}
	.st4{fill:#278279;}
	.st5{fill:#295148;}
	.st6{opacity:0.7;clip-path:url(#SVGID_6_);}
	.st7{opacity:0.7;clip-path:url(#SVGID_8_);}
	.st8{fill:#0D6954;}
	.st9{fill:#0BA587;}
	.st10{opacity:0.3;clip-path:url(#SVGID_10_);}
	.st11{opacity:0.3;clip-path:url(#SVGID_12_);}
	.st12{opacity:0.3;clip-path:url(#SVGID_14_);}
	.st13{opacity:0.3;clip-path:url(#SVGID_16_);}
	.st14{opacity:0.3;clip-path:url(#SVGID_18_);}
	.st15{opacity:0.3;clip-path:url(#SVGID_20_);}
	.st16{fill:#F9FBED;}
</style>
<g transform="matrix(1.25,0,0,-1.25,0,750)">
	<g>
		<g>
			<defs>
				<rect id="SVGID_1_" x="-12.7" y="561.2" width="50" height="50"/>
			</defs>
			<clipPath id="SVGID_2_">
				<use xlink:href="#SVGID_1_"  style="overflow:visible;"/>
			</clipPath>
			<g class="st0">
				<path class="st1" d="M-3.7,570.1h32v32h-32C-3.7,602.1-3.7,570.1-3.7,570.1z"/>
				<g>
					<g>
						<defs>
							<rect id="SVGID_3_" x="-0.4" y="572.6" width="26.3" height="26.3"/>
						</defs>
						<clipPath id="SVGID_4_">
							<use xlink:href="#SVGID_3_"  style="overflow:visible;"/>
						</clipPath>
						<g class="st2">
							<path class="st3" d="M12.5,592c-1.6-1.6-1.8-4-0.6-5.8l0,0l0,0C10.7,588,10.9,590.4,12.5,592c0.1,0.1,0.1,0.1,0.2,0.2
								C12.6,592.1,12.5,592.1,12.5,592 M4.9,579.2l5.6,5.6c0,0,0,0.1,0,0.1c0,0.1,0,0.2,0.1,0.2l0.6,0.6c-1.4,2.1-1.1,4.9,0.7,6.8
								c0.3,0.3,0.6,0.5,0.9,0.7c0.3,0.2,0.7,0.4,1.1,0.5c1.9,0.7,4.2,0.3,5.7-1.3c2.1-2.1,2.1-5.6,0-7.7c-1.8-1.8-4.7-2.1-6.8-0.7
								l-0.6-0.6c-0.1-0.1-0.2-0.1-0.4-0.1l-5.6-5.6l-0.5-0.5l-0.1-0.1l0,0l-1.3,1.3L4.9,579.2z"/>
						</g>
					</g>
				</g>
				<path class="st4" d="M5.2,577.7L5.2,577.7L5.2,577.7L5.2,577.7L5.2,577.7z"/>
				<path class="st4" d="M4.5,579.6l1.3-1.3l-0.5-0.5l-0.1,0l-1.3,1.3L4.5,579.6L4.5,579.6z"/>
				<path class="st5" d="M10.1,585.2C10.1,585.2,10.1,585.2,10.1,585.2l1.2-1.3c0,0,0.1,0,0.1-0.1l-5.6-5.6l-1.3,1.3L10.1,585.2
					L10.1,585.2z"/>
				<path class="st4" d="M10.1,585.2c0,0,0,0.1,0,0.1l0.1,0L10.1,585.2z"/>
				<path class="st4" d="M12.4,584.6l-0.6-0.6c-0.1-0.1-0.2-0.1-0.4-0.1l0.8,0.8C12.3,584.7,12.3,584.6,12.4,584.6"/>
				<path class="st4" d="M10.1,585.1c0,0,0,0.1-0.1,0.1l0.1,0.1l2-0.5c0,0,0.1,0,0.1-0.1l-0.8-0.8c0,0-0.1,0-0.1,0.1L10.1,585.1
					L10.1,585.1z"/>
				<path class="st4" d="M10.2,585.3l-0.1,0c0,0.1,0,0.2,0.1,0.2l0.6,0.6c0-0.1,0.1-0.1,0.1-0.2L10.2,585.3z"/>
				<g>
					<g>
						<defs>
							<rect id="SVGID_5_" x="9.8" y="585.1" width="1.3" height="1.4"/>
						</defs>
						<clipPath id="SVGID_6_">
							<use xlink:href="#SVGID_5_"  style="overflow:visible;"/>
						</clipPath>
						<g class="st6">
							<path class="st4" d="M10.2,585.3l-0.1,0c0,0.1,0,0.2,0.1,0.2l0.6,0.6c0-0.1,0.1-0.1,0.1-0.2L10.2,585.3z"/>
						</g>
					</g>
				</g>
				<path class="st4" d="M11.5,585.3c0.2-0.2,0.4-0.4,0.6-0.5l0,0l-2,0.5l0.7,0.7C11.1,585.8,11.3,585.5,11.5,585.3"/>
				<g>
					<g>
						<defs>
							<rect id="SVGID_7_" x="9.6" y="584.4" width="3.1" height="2"/>
						</defs>
						<clipPath id="SVGID_8_">
							<use xlink:href="#SVGID_7_"  style="overflow:visible;"/>
						</clipPath>
						<g class="st7">
							<path class="st4" d="M11.5,585.3c0.2-0.2,0.4-0.4,0.6-0.5l0,0l-2,0.5l0.7,0.7C11.1,585.8,11.3,585.5,11.5,585.3"/>
						</g>
					</g>
				</g>
				<path class="st8" d="M13.5,594.3l-1.1-0.5C12.8,594,13.1,594.1,13.5,594.3"/>
				<path class="st8" d="M12.3,584.8l0.5,0.5c1.8-1.2,4.2-1,5.8,0.6c0.1,0.1,0.1,0.1,0.2,0.2l0,0l0,0l0,0c1.6,1.8,1.6,4.6-0.2,6.3
					c-1.7,1.7-4.5,1.8-6.3,0.2l0,0l0,0l0,0c-0.1-0.1-0.1-0.1-0.2-0.2c-1.6-1.6-1.8-4-0.6-5.8l-0.5-0.5l-0.1,0.1l-0.1-0.1
					c-1.4,2.1-1.1,4.9,0.7,6.8c0.3,0.3,0.6,0.5,0.9,0.7l1.1,0.5c1.9,0.7,4.2,0.3,5.7-1.3c2.1-2.1,2.1-5.6,0-7.7
					c-1.8-1.8-4.7-2.1-6.8-0.7l0.1,0.1L12.3,584.8L12.3,584.8z"/>
				<path class="st8" d="M11.5,586.6c0.2-0.3,0.4-0.5,0.6-0.7c0.2-0.2,0.5-0.4,0.7-0.6l-0.5-0.5l-1.3,1.3L11.5,586.6z"/>
				<path class="st8" d="M12.3,584.7l0.2-0.1l-0.1-0.1C12.3,584.6,12.3,584.7,12.3,584.7L12.3,584.7z"/>
				<path class="st8" d="M12.2,584.7c0,0-0.1,0-0.1,0.1L12.2,584.7L12.2,584.7L12.2,584.7z"/>
				<path class="st8" d="M12.3,584.8l0.1-0.1L12.3,584.8z"/>
				<path class="st8" d="M11,586.2l1.3-1.3L11,586.2z"/>
				<path class="st8" d="M12.5,584.7l-0.2,0.1l0.1,0.1L12.5,584.7z"/>
				<path class="st8" d="M11.5,585.3c-0.2,0.2-0.4,0.5-0.6,0.7l0.1,0.1l1.3-1.3l-0.1-0.1l-0.1,0l0,0
					C11.9,584.9,11.7,585.1,11.5,585.3"/>
				<path class="st9" d="M12.4,586.3c-0.7,0.7-1.2,1.6-1.3,2.6c0.7-0.5,2.3-1.6,4.2-1.6c2.5,0,4.6,1.9,4.6,1.9s-1.1,1-2.7,1.6
					c-0.6,0.2-1.2,0.3-1.8,0.3c-0.7,0-1.3-0.1-1.8-0.3c-1.1-0.4-2-1-2.4-1.3c0,1.1,0.4,2.3,1.2,3.1c1.8,1.6,4.6,1.6,6.3-0.2
					s1.8-4.5,0.2-6.3C17,584.5,14.2,584.5,12.4,586.3"/>
				<path class="st9" d="M12.3,592.6L12.3,592.6L12.3,592.6"/>
				<path class="st9" d="M18.8,586.1L18.8,586.1L18.8,586.1"/>
				<path class="st8" d="M12.3,592.6L12.3,592.6L12.3,592.6L12.3,592.6"/>
				<g>
					<g>
						<defs>
							<rect id="SVGID_9_" x="12.3" y="592.6" width="0" height="0"/>
						</defs>
						<clipPath id="SVGID_10_">
							<use xlink:href="#SVGID_9_"  style="overflow:visible;"/>
						</clipPath>
						<g class="st10">
							<path class="st9" d="M12.3,592.6L12.3,592.6L12.3,592.6L12.3,592.6"/>
						</g>
					</g>
				</g>
				<path class="st8" d="M18.6,585.9c0.1,0.1,0.1,0.1,0.2,0.2C18.7,586,18.6,586,18.6,585.9c-1.6-1.6-4-1.8-5.8-0.6l0,0
					C14.6,584.1,17,584.3,18.6,585.9"/>
				<g>
					<g>
						<defs>
							<rect id="SVGID_11_" x="11.2" y="584.1" width="9.3" height="2.4"/>
						</defs>
						<clipPath id="SVGID_12_">
							<use xlink:href="#SVGID_11_"  style="overflow:visible;"/>
						</clipPath>
						<g class="st11">
							<path class="st9" d="M18.6,585.9c0.1,0.1,0.1,0.1,0.2,0.2C18.7,586,18.6,586,18.6,585.9c-1.6-1.6-4-1.8-5.8-0.6l0,0
								C14.6,584.1,17,584.3,18.6,585.9"/>
						</g>
					</g>
				</g>
				<path class="st8" d="M18.8,586.1L18.8,586.1L18.8,586.1L18.8,586.1"/>
				<g>
					<g>
						<defs>
							<rect id="SVGID_13_" x="18.8" y="586.1" width="0" height="0"/>
						</defs>
						<clipPath id="SVGID_14_">
							<use xlink:href="#SVGID_13_"  style="overflow:visible;"/>
						</clipPath>
						<g class="st12">
							<path class="st9" d="M18.8,586.1L18.8,586.1L18.8,586.1L18.8,586.1"/>
						</g>
					</g>
				</g>
				<path class="st8" d="M11.5,586.6L11.5,586.6L11.5,586.6c0.2-0.3,0.4-0.5,0.6-0.7c0.2-0.2,0.5-0.4,0.7-0.6l0,0
					c-0.3,0.2-0.5,0.4-0.7,0.6C11.9,586.1,11.7,586.4,11.5,586.6"/>
				<g>
					<g>
						<defs>
							<rect id="SVGID_15_" x="11.1" y="584.9" width="2.1" height="2.1"/>
						</defs>
						<clipPath id="SVGID_16_">
							<use xlink:href="#SVGID_15_"  style="overflow:visible;"/>
						</clipPath>
						<g class="st13">
							<path class="st9" d="M11.5,586.6L11.5,586.6L11.5,586.6c0.2-0.3,0.4-0.5,0.6-0.7c0.2-0.2,0.5-0.4,0.7-0.6l0,0
								c-0.3,0.2-0.5,0.4-0.7,0.6C11.9,586.1,11.7,586.4,11.5,586.6"/>
						</g>
					</g>
				</g>
				<path class="st9" d="M12.8,585.3L12.8,585.3l-1.2,1.4l-0.1-0.1c-1.2,1.8-1,4.2,0.6,5.8c0.1,0.1,0.1,0.1,0.2,0.2l0,0l0,0
					c-0.8-0.9-1.2-2-1.2-3.1c-0.2-0.2-0.3-0.3-0.3-0.3s0.1-0.1,0.4-0.3c0.1-0.9,0.6-1.9,1.3-2.6c1.7-1.7,4.5-1.8,6.3-0.2l0,0l0,0
					c-0.1-0.1-0.1-0.1-0.2-0.2C17,584.3,14.6,584.1,12.8,585.3"/>
				<g>
					<g>
						<defs>
							<rect id="SVGID_17_" x="9.7" y="583.6" width="10" height="10"/>
						</defs>
						<clipPath id="SVGID_18_">
							<use xlink:href="#SVGID_17_"  style="overflow:visible;"/>
						</clipPath>
						<g class="st14">
							<path class="st9" d="M12.8,585.3L12.8,585.3l-1.2,1.4l-0.1-0.1c-1.2,1.8-1,4.2,0.6,5.8c0.1,0.1,0.1,0.1,0.2,0.2l0,0l0,0
								c-0.8-0.9-1.2-2-1.2-3.1c-0.2-0.2-0.3-0.3-0.3-0.3s0.1-0.1,0.4-0.3c0.1-0.9,0.6-1.9,1.3-2.6c1.7-1.7,4.5-1.8,6.3-0.2l0,0l0,0
								c-0.1-0.1-0.1-0.1-0.2-0.2C17,584.3,14.6,584.1,12.8,585.3"/>
						</g>
					</g>
				</g>
				<path class="st9" d="M12.9,585.4L12.9,585.4c-0.3,0.1-0.6,0.3-0.8,0.5c-0.2,0.2-0.4,0.5-0.6,0.7l0.1,0.1L12.9,585.4z"/>
				<g>
					<g>
						<defs>
							<rect id="SVGID_19_" x="11.1" y="584.9" width="2.2" height="2.2"/>
						</defs>
						<clipPath id="SVGID_20_">
							<use xlink:href="#SVGID_19_"  style="overflow:visible;"/>
						</clipPath>
						<g class="st15">
							<path class="st9" d="M12.9,585.4L12.9,585.4c-0.3,0.1-0.6,0.3-0.8,0.5c-0.2,0.2-0.4,0.5-0.6,0.7l0.1,0.1L12.9,585.4z"/>
						</g>
					</g>
				</g>
				<path class="st5" d="M11.1,589.4c0-0.1,0-0.2,0-0.3c0,0,0,0,0,0l0,0c0.6-0.5,2.3-1.7,4.2-1.7c2,0,3.7,1.2,4.3,1.7
					c-0.4,0.3-1.3,1-2.4,1.4c0,0,0,0.1,0,0.1c0,0,0,0.1,0,0.1c1.6-0.5,2.7-1.6,2.7-1.6s-2.1-1.9-4.6-1.9c-1.9,0-3.5,1-4.2,1.6
					c-0.2,0.2-0.4,0.3-0.4,0.3S10.9,589.3,11.1,589.4"/>
				<path class="st5" d="M13.5,590.7c0,0,0-0.1,0-0.1c-1.1-0.4-2-1-2.4-1.3c0,0.1,0,0.2,0,0.3C11.5,589.8,12.4,590.4,13.5,590.7
					C13.5,590.7,13.5,590.7,13.5,590.7"/>
				<path class="st16" d="M15.3,588.8c1,0,1.8,0.8,1.8,1.7c1.1-0.4,2-1.1,2.4-1.4c-0.6-0.4-2.3-1.7-4.3-1.7c-2,0-3.7,1.2-4.2,1.7
					c0,0,0,0,0,0c0.4,0.3,1.3,0.9,2.4,1.3C13.6,589.6,14.4,588.8,15.3,588.8"/>
				<path class="st5" d="M14.5,589.9c0.2,0,0.3,0.1,0.3,0.3c0,0.2-0.1,0.3-0.3,0.3s-0.3-0.1-0.3-0.3
					C14.2,590.1,14.3,589.9,14.5,589.9 M13.5,590.7c0.6,0.2,1.2,0.3,1.8,0.3c0.7,0,1.3-0.1,1.8-0.3c0,0,0-0.1,0-0.1c0,0,0-0.1,0-0.1
					c-0.1-1-0.9-1.7-1.8-1.7c-1,0-1.8,0.8-1.8,1.7C13.5,590.6,13.5,590.6,13.5,590.7C13.5,590.7,13.5,590.7,13.5,590.7"/>
				<path class="st1" d="M14.5,590.5c0.2,0,0.3-0.1,0.3-0.3c0-0.2-0.1-0.3-0.3-0.3s-0.3,0.1-0.3,0.3
					C14.2,590.4,14.3,590.5,14.5,590.5"/>
			</g>
		</g>
	</g>
</g>
<g>
	<path d="M43.4,14.4l1.9-0.1c0.5,0.8,0.6,1.4,0.1,1.7c-0.4,0.2-0.8,0.4-1.2,0.5c-0.4,0.3-0.8,0.4-1.1,0.5l-0.1,0.1
		c-0.3,0.1-0.4,0.2-0.3,0.4v0.7c0,0.1,0.1,0.1,0.4,0c1-0.4,1.7-0.6,2.1-0.4c0.3,0.4,0.6,1,1,1.5c0.1,0.2,0,0.3-0.1,0.4
		c-0.7,0.4-1.8,0.6-3.1,0.8c-0.4,0.1-0.6,0.1-0.8,0.1c-0.2,0.1-0.2,0.3-0.1,0.5c0.2,0.2,0.4,0.3,0.7,0.4c1.2,0.5,1.8,1.1,1.9,1.5
		c-0.3,0.6-0.5,1-0.7,1c-0.4-0.1-1-0.1-1.9-0.1c-0.3,0.1-0.4,0.2-0.3,0.3c0.1,0.8,0.1,1.7,0.1,2.5s0,1.7,0,2.6
		c0,0.2-0.1,0.3-0.4,0.3c-1.1-0.4-2.6-1.6-4.6-3.4c-0.3,0.3-0.5,0.7-0.8,1.2c-0.2,0.2-0.3,0.4-0.4,0.5c-0.3,0.4-0.5,0.4-0.7,0.3
		c-0.4-0.2-1.1-0.6-1.9-1.2c-0.1-0.2-0.1-0.3,0-0.4c0.3-0.3,0.6-0.9,1-1.5c0.9-1.3,1.7-2.3,2.4-3.1c0.3-0.3,0.3-0.4-0.1-0.1
		c-0.3,0.1-0.6,0.2-1.1,0.4c-1,0.2-1.7,0.5-2.1,1c-0.2,0.2-0.5,0-1-0.7c-0.4-0.4-0.5-0.7-0.4-0.8c0-0.2,0.1-0.3,0.3-0.4l0.3,0.1
		l4.5-1.7c0.5-0.5,1.7-0.9,3.4-1c0-0.1,0-0.3,0-0.7c0-0.3-0.2-0.4-0.5-0.4c-0.2,0.1-1.1,0.3-2.9,0.7c-0.1,0-0.2,0-0.3,0.1
		c-0.2,0.2-0.3,0.2-0.4,0.1c-0.4-0.4-0.8-1.1-1.1-2.1c0-0.2,0.2-0.2,0.5-0.1c0.7-0.2,2-0.6,3.8-1.2c0.8-0.3,1.5-0.5,1.9-0.7
		c0.5-0.4,1-1.3,1.2-2.6c0-0.1,0-0.2,0-0.3c0-0.3,0-0.5-0.1-0.7c-0.3-0.1-0.6,0.1-1,0.5c-0.4,0.4-0.9,0.9-1.4,1.7
		c-0.4,0.8-0.9,1.3-1.2,1.4C38.2,14.9,38.1,15,38,15c-0.3,0.2-0.4,0.1-0.5-0.1c-0.3-0.3-0.3-0.6-0.1-1.1c0.1-0.3,0.2-0.5,0.4-0.8
		c0.3-0.6,0.6-1.1,0.8-1.5c0-0.2-0.1-0.3-0.3-0.3c-0.7,0.3-1.4,0.6-2.1,1.1c-0.4-1-0.7-1.6-0.7-1.8c0-0.3,0.1-0.4,0.4-0.4
		c2.8-0.5,5.5-1.2,8.2-1.9c0.9-0.2,1.5-0.1,1.8,0.1c0,0.4,0,0.7,0.1,0.8c0.1,0.3,0,0.4-0.4,0.5c-0.1,0.1-0.3,0.2-0.7,0.3l-0.5,0.3
		c-0.3,0.2-0.3,0.3,0,0.3c0,0.1,0.1,0.2,0.3,0.3c0.9,0.4,1.4,0.6,1.4,0.8c-0.1,0.4-0.4,0.7-1,1c-0.2,0.2-0.3,0.3-0.4,0.3
		C43.8,13.4,43.4,13.9,43.4,14.4z M37.1,25.5c0,0.3,0,0.4,0.1,0.5h0.1c0.1,0.1,0.2,0.1,0.4,0.1c0.6,0.3,1.1,0.4,1.4,0.3
		c0.3,0,0.4-0.1,0.5-0.4c0.3-1.3,0.3-2.8,0-4.5c-0.8,0.2-1.4,0.3-1.8,0.3c-0.3,0.1-0.4,0.2-0.4,0.3C37.5,23.2,37.4,24.3,37.1,25.5z
		 M43.4,6.9c-1.8-0.3-2.7-1.1-2.9-2.1c-0.1-0.7,0.3-1.7,1.2-2.8c0.4-0.3,0.8-0.4,1-0.3c0,0.4,0.2,0.9,0.5,1.5c0.3,0.4,0.4,0.8,0.5,1
		C44.4,5.9,44.3,6.8,43.4,6.9z M50.9,17.9L49,18.7c-0.2,0.4-0.4,1.1-0.7,1.8c-0.3,0.7-0.4,1.3-0.5,1.7c0,0.1,0,0.2,0,0.3
		c0.3,0.4,0.3,0.6,0.3,0.8c-0.6,1.4-1.7,2.4-3.2,3.1c-0.1,0.1-0.3,0.2-0.5,0.3c-0.7,0.3-1.1,0.3-1,0.1l0.1-0.3
		c1.8-2.6,3.1-5,3.6-7.2c0.5-2.2,0.7-4.9,0.4-8.1c0-0.3,0.2-0.6,0.5-0.7c0.8-0.3,2.1-0.6,3.8-1.1c0.4-0.1,0.8-0.2,1.1-0.3
		c1-0.3,1.9-0.9,2.8-1.5c0.6,0.8,1,1.8,1,2.8c0,0.1-0.3,0.2-0.8,0.4l-0.4,0.3c-0.5,0.4-1.8,0.8-3.8,1.1l-1.1,0.3
		c-0.8,1.3-1.2,2.4-1.2,3.2c0,0.3,0.2,0.4,0.5,0.3c2.9-0.7,5.7-1.5,8.6-2.2c0.2-0.1,0.3,0,0.5,0.1c0.4,1,0.9,2.1,1.4,3.2
		c0,0.4-0.1,0.6-0.3,0.7c-0.4-0.1-0.7-0.1-1.1,0c-0.1,0-0.2,0-0.4,0c-0.7-0.1-1.5-0.2-2.4-0.3c-0.8,0-1.2,0-1.1,0.1
		c-0.6,4.5-0.9,7.3-0.7,8.5c0.1,0.4,0.1,0.7,0.1,0.8c0,0.2-0.1,0.6-0.3,1.2c-0.2,1.1-0.3,1.8-0.3,2.1c-0.1,0.3,0,1,0.3,1.9
		c0.1,0.4,0.2,0.9,0.3,1.2c0,0.2-0.2,0.3-0.5,0.4c-0.8-0.1-1.3-0.2-1.5-0.3c-0.1-0.3-0.2-0.9-0.3-1.8c-0.1-1-0.1-1.8-0.1-2.2
		c0-1.3,0-2.7,0-4.3c0-1.4,0-3.4-0.1-6.1C51.8,18.1,51.4,17.7,50.9,17.9z"/>
	<path d="M69.8,13.6c0-0.4,0-0.8-0.1-1c-0.2-0.5-0.3-1.1-0.3-1.7c0.1-0.4,0.7-0.5,1.9-0.3c1.6,0.4,2.3,1,2.2,1.7
		c-0.5,0.7-0.9,2.1-1,4.1c0,0.6-0.1,1.3-0.4,1.9c-0.5,0.4-0.8,3-0.7,7.5c-0.1,0.6-0.3,1.1-0.5,1.2c-0.3,0.1-0.7,0.1-1.2,0.1
		c-0.2-0.3-0.3-0.6-0.3-0.7c-0.1-2.2,0-5.1,0.1-8.8C69.7,15.5,69.8,14.1,69.8,13.6z M75.1,8.6c-0.2-0.1-0.6-0.2-1.2-0.4
		c-1.7-0.3-2.5-1.2-2.5-2.6c0.2-1.5,0.8-2.2,1.8-2.2c0.6,1.3,1.4,2.1,2.2,2.4c0.7,0.4,1.1,1.2,1,2.2C76.3,8.6,75.8,8.8,75.1,8.6z
		 M75.1,12.3c-0.1-0.6,0-1.1,0.4-1.2c1.1-0.1,2.2-0.2,3.4-0.3c1.4-0.1,3.2-0.6,5.3-1.7c0.7-0.3,1.2-0.4,1.4-0.3
		c0.1,0.4,0.3,0.7,0.7,1c0.5,0.6,0.5,1.1-0.1,1.5c-0.5,0.3-0.9,0.6-1,1c-0.4,1.9-0.5,2.7-0.4,2.5c0.2,1.2,0.2,2.4,0.1,3.6
		c0.9-0.1,1.6-0.2,2.1-0.3c0.3-0.1,0.6,0.2,0.8,0.8c0,0.4,0.1,0.8,0.3,1c0.3,0.4,0.3,0.7,0,0.8c-0.7-0.1-1.7-0.1-2.9-0.1
		c-0.4,0-0.6,0.2-0.5,0.5c-0.2,2.5-0.1,4.1,0.3,4.6c-0.3,0.4-0.6,0.5-1,0.5c-0.5-0.1-1.1-0.1-1.7-0.1c-0.4,0-0.4-0.5,0-1.5
		c0.3-1.4,0.3-2.6,0.3-3.8c-0.6,0-1.7,0.2-3.1,0.5c-0.2,0.1-0.5,0.2-1,0.3c-0.7,0.3-1.1,0.4-1.1,0.3c-1.7,0.3-2.7,0.5-3.1,0.8
		c-1-0.3-1.6-0.7-1.7-1.4c-0.1-0.3,0-0.5,0.4-0.5c0.5,0.1,1.5-0.1,2.9-0.5c-0.2-0.9-0.1-2.1,0.3-3.6c0.2-1.2,0.2-2.3,0-3.2
		C75.7,13.6,75.3,13.2,75.1,12.3z M77.7,6.5c0-0.6,0.1-1.1,0.4-1.2c0.6-0.3,1.6-0.6,2.9-0.8C82.6,4.2,84,4,85.1,3.7
		c1.7-0.3,3.3-0.3,4.7,0c0.8,0.4,1.8,0.6,2.8,0.8c0.7,0.1,1.1,0.4,1.1,1c-0.9,1.8-1.4,3.2-1.4,4.2c0,0.8,0,1.7,0.1,2.6
		c0,2.1,0,3.6,0,4.5c-0.2,1.8-0.3,3.5-0.3,5.3c0,0.6,0.1,1.3,0.4,2.1c0.2,1.3,0.2,2.4,0.1,3.2c-0.2,0.5-0.1,1.9,0.1,4.2
		c-0.2,0.3-0.5,0.3-1,0.3c-0.7-0.4-1.6-0.8-2.5-1c-0.4-0.1-1-0.3-1.5-0.5c-0.6-0.2-1.6-0.5-2.9-1c-0.3-0.2-0.5-0.3-0.8-0.5
		c-0.1,0-0.2,0-0.4-0.1c-0.3-0.3-0.5-0.4-0.7-0.5c-0.3-0.3-0.3-0.4,0-0.4c2.2,0.4,3.8,0.6,4.6,0.5c1.3,0.1,1.9-0.4,1.9-1.7
		c0-0.8,0-1.7,0-2.5c0-1.8,0-2.8,0-3.2c-0.3-1.2-0.4-2.2-0.4-3.1c0-0.3,0-1.2-0.1-2.6c0-2.3,0-4.2,0-5.6c0.1-2.8-1.1-4-3.6-3.6
		c-1.8,0.3-3.5,0.9-5.3,1.8c-0.7,0.4-1.3,0.6-1.7,0.4C78.2,7.5,78,6.9,77.7,6.5z M81.7,18.2c-1.3,0.1-2.4,0.2-3.2,0.4
		c-0.3,0.4-0.3,0.8-0.1,1.1c2-0.2,3.5-0.5,4.3-1c0.1,0,0.1-0.8,0.1-2.4c-0.1-2.1-0.1-3.4-0.1-3.8c-0.9,0-2.1,0.1-3.5,0.4
		c-0.3,0.2-0.4,0.4-0.3,0.8c0.7-0.1,1.5-0.1,2.2-0.1c0.4,0.4,0.6,0.9,0.5,1.5c-1.2,0.1-2.1,0.2-2.6,0.3c-0.4,0.3-0.6,0.7-0.5,1.4
		c1.1-0.1,2-0.2,2.8-0.3C81.6,17,81.7,17.5,81.7,18.2z"/>
	<path d="M102.9,14c1.8-0.2,3.4-0.5,4.5-1.1c0.5-1.6,0.8-4.7,0.7-9.5c0.8-0.6,1.7-0.4,2.6,0.7c-0.2,1.2-0.4,2.2-0.5,3.1
		c-0.4,2.3-0.6,3.8-0.4,4.5h0.3c0.2-0.1,0.3-0.1,0.5-0.1c0.6,0.4,1,1.2,1.1,2.2c-0.3,0.3-0.7,0.6-1.2,1.1c-0.2,0.2-0.3,0.3-0.4,0.3
		c-0.2,0.3-0.3,1.1-0.3,2.4c0.1,0,0.2,0,0.4-0.1c0.5-0.2,1-0.2,1.2-0.1c0.4,0.3,0.2,0.8-0.7,1.7c-0.1,0.1-0.2,0.2-0.3,0.3
		c-0.7,0.6-1.1,1.1-1,1.5c-0.1,3.9-0.1,7.3-0.1,10.1c0.1,0.2,0.1,0.3,0.1,0.4c0,0.3-0.3,0.4-1,0.3c-0.2-0.1-0.3-0.1-0.4-0.1
		c-0.2-0.1-0.3-0.2-0.4-0.3c-1.9-0.5-3.2-1.3-4.1-2.2c-0.3-0.2-0.3-0.3-0.1-0.4c0.3-0.1,0.6-0.1,1,0c1.9,0.7,3,0.4,3.2-0.8
		c0-0.3-0.1-1.6-0.3-3.9c0-0.3,0-0.5,0-0.8c-1.9,1.7-3.2,3.3-4.1,4.8l-0.1,0.3c-1,0.3-2.1-0.2-3.4-1.5c-0.6-0.3-0.5-0.9,0.4-1.5
		c1.8-1.7,4.2-3.6,7.1-5.8c0-1.1,0-1.7-0.1-1.7c-0.8,0-1.6,0.3-2.4,0.8c-0.3,0.1-0.4,0.1-0.5,0.1c-0.9-0.3-1.5-1.4-1.8-3.5
		C102.5,14.4,102.6,14.1,102.9,14z M120,19.2h1.2c2.4,0.4,3.4,1.1,3.1,1.8c-1.4,1.4-2.4,2.6-3.1,3.6c1.4,2,3.6,3.4,6.7,4.2
		c3.1,0.9,4.7,1.7,4.7,2.4c-0.9,0.4-2.3,0.7-4.2,0.7c-0.4,0-1.1-0.1-2.1-0.3c-0.9-0.2-1.6-0.3-2.1-0.3c-0.4,0-0.6-0.4-0.7-1.1
		c-0.4-1.6-1.7-2.6-4.1-3.2c-0.4-0.1-1.4,0.9-2.9,2.9c-0.1,0.2-0.6,0.2-1.7,0.1c-0.4-0.1-0.7-0.1-0.8-0.1c-1.9,0-3.2-0.5-3.9-1.5
		c-0.3-0.2-0.4-0.3-0.3-0.5c0.1-0.1,0.3-0.1,0.8,0c3.2,0.7,5.5,0,7-2.2c-1.2-0.6-2.7-1.3-4.5-1.9c-0.2-0.1-0.3-0.2-0.4-0.3
		c-0.4-0.3-0.3-1,0.3-2.2c0.2-0.4,0.4-0.5,0.8-0.3c0.5,0.6,1.6,1.3,3.2,1.9c1,0.4,1.8,0.6,2.2,0.8c0.7-1.5,0.5-2.5-0.7-3.1
		c-0.4,0-0.8,0.2-1.2,0.7c-0.4,0.3-0.6,0.4-0.7,0.5c-0.4,0.1-0.8-0.3-1.1-1.1c0.5-0.5,1.2-1,1.9-1.2v-1.2c-0.5,0-1.2,0.2-1.9,0.7
		c-0.4,0.3-0.7,0.3-0.8,0c-1-1.9-1.7-4.6-2.1-7.8c-0.1-0.1,0.5-0.5,1.9-1.4c0.6-0.3,1.3-0.8,2.1-1.4c0.6,0.5,0.8,1.2,0.5,2.1
		c-1,0.4-1.8,0.9-2.4,1.5c-0.1,0.1-0.1,0.4,0,0.8h1.7c0.3,0,0.5,0.3,0.5,0.8c0.1,0.5-0.6,1-2.1,1.4c0.1,1,0.3,1.6,0.5,1.7
		c0.4-0.1,1.2-0.3,2.4-0.7c0.1-1,0.1-2.8,0.1-5.3c0.1-2.8,0.2-5.3,0.3-7.7c0.6-0.8,1.4-0.7,2.4,0.3c-0.4,2.1-0.7,6.3-0.7,12.5
		c0.6-0.1,1.4-0.1,2.2,0c0.8-0.6,1-1.2,0.5-1.8c-0.2,0-0.4,0-0.8,0.1c-0.4,0-0.7,0-0.8-0.1c-0.5-0.4-0.6-1-0.1-1.5h0.3
		c1.1-0.3,1.9-0.4,2.4-0.4c0-0.7-0.3-1.2-1-1.4c-0.3,0-0.6,0-1,0.1c-0.3,0.1-0.4,0.1-0.5,0.1c-0.3-0.2-0.4-0.7-0.3-1.5
		c0.3-0.1,0.9-0.2,1.7-0.3c0.3-0.1,0.5-0.2,0.7-0.3c2.1-0.1,3.4,0.4,3.8,1.4c-0.2,0.2-0.5,1.1-1.1,2.9c-1,3.2-1.7,4.8-1.9,5.1
		c-0.1,0.1-0.4,0.1-1,0c-0.7-0.3-1.6-0.5-2.6-0.5C120.2,18,120,18.4,120,19.2z"/>
	<path d="M138.3,20.5c0.2-0.6,0.7-1.5,1.7-2.6c1-1.3,1.7-1.7,1.9-1.1c-0.3,1.9-0.3,3.4-0.1,4.7c0,0.6-0.5,0.8-1.5,0.5
		C138.8,21.6,138.2,21.1,138.3,20.5z M149.1,12.9l0.4-1.5c0-0.3-0.1-0.4-0.4-0.5c-0.6,0-1.6,0.3-2.9,1c-0.6-1-1-2.3-1.1-3.8
		c1.8-0.2,3.5-0.5,5.3-1c0-1,0.1-2.6,0.4-4.7c0-0.4,0-0.8,0.1-1.1c0.5-0.3,1.7-0.2,3.5,0.4c0.2,0.2,0.3,0.4,0.3,0.7
		c-0.7,1-1.2,2.4-1.4,4.2c1.1-0.3,2.3-0.5,3.6-0.7c0.3,0,0.7,0.5,1.1,1.5c0.4,1.2,0.5,1.9,0.1,1.9c-1.1,0-2.2,0-3.4,0
		c-1.9,0.3-2.8,1.1-2.5,2.5c1.3-0.1,3.4-0.1,6.3-0.1c0.3,0,1.1,0.5,2.4,1.5c0.4,0.3,0.9,0.5,1.2,0.7c0.8,0.4,1.8,1.3,2.8,2.6
		c0.8,1,1.1,1.6,0.8,1.8c-2.3,0.9-4.7,1.1-7.2,0.5c-0.4,0-0.6,0-0.7-0.1c0-0.2,0.1-0.3,0.4-0.4c2.3-0.7,3.4-1.7,3.4-2.9
		c-0.1-1.3-1-2-2.6-2.1c-2-0.1-4.4,0.1-7,0.7c0,0.2,0,0.4,0.1,0.8c0.2,0.4,0.2,0.6,0.1,0.7c-0.1,0.1-0.2,0.2-0.4,0.3
		c-0.4,0.4-1.2,1.1-2.2,2.1h0.1c1.7-0.1,2.6-0.3,2.6-0.5c0.1-0.1,0.3-0.3,0.8-0.7c0.3-0.3,0.9-1,1.9-2.1c0.8-0.2,1.5,0.3,1.9,1.4
		c-0.9,0.4-2.9,2.3-5.8,5.6c0.6,0.1,1.4-0.1,2.4-0.5c0.7-0.3,1.3-0.5,1.7-0.5c2.2-0.1,3.8,1.2,4.6,3.9c0,0.3-0.2,0.4-0.5,0.4
		c-2.2-0.2-3.2-0.4-2.9-0.8c-0.1-1.1-0.3-1.8-0.7-2.1c-0.5,0.4-1,1.1-1.2,2.4c0,0.1-0.1,0.1-0.3,0.1c-1.2,0-1.8,0.4-1.8,1.1
		c-0.2,1.2-0.2,2.6-0.1,4.1c0.1,1.3,0.3,2.6,0.7,3.9c0,0.3-0.2,0.5-0.5,0.5c-2.7-0.5-4.8-1.5-6.3-2.8c-0.4-0.4-0.5-0.6-0.4-0.7
		c0.1-0.1,0.4-0.1,1,0c1.8,0.5,2.7,0.4,2.9-0.4c0.1-0.3,0.1-0.9,0.1-1.5c0.1-0.6,0.1-1.8,0.1-3.4c-0.1-0.2-0.2-0.3-0.4-0.4
		c-1.4,0.1-2.3,0.6-2.8,1.5c-1.3,1.9-2.1,3.9-2.5,5.8c-0.4,0.3-1.4,0-3.2-0.8c-0.4-0.3-0.5-0.6-0.1-1c0.8-0.8,2.4-2.2,4.7-4.2
		l-0.4-0.5c-0.9-1.1-1.2-1.7-1-1.8c2.7-1,4.3-2.2,4.7-3.5c-0.4,0-1.6,0.4-3.6,1.4c-0.8-0.1-1.3-0.9-1.4-2.4c1.8-0.3,2.6-0.6,2.6-0.7
		c1.5-1.7,2.3-3.1,2.5-4.2c-0.8,0.3-2,0.7-3.5,1.4c-0.5,0.3-1,0.4-1.4,0.5c-0.6,0.1-1.1-0.1-1.2-0.7c0.3-0.8,0.8-1.2,1.4-1.1
		c0.4,0.3,1.9-0.2,4.3-1.4C148.9,13.1,149,13,149.1,12.9z M161,31.4c-0.3,0.6-0.6,0.8-1.1,0.5c-2.3-1.8-3.9-3.3-4.7-4.5
		c-0.3-0.3-0.4-0.6-0.4-0.8c0.1-0.1,0.3-0.1,0.8-0.1c2.6,0.6,4.3,1.2,5.1,1.7c0.3,0.4,0.4,1.1,0.3,2.1C161,30.5,161,30.9,161,31.4z"
		/>
</g>
</svg>
