<?xml version="1.0" encoding="utf-8"?>
<!-- Generator: Adobe Illustrator 23.1.0, SVG Export Plug-In . SVG Version: 6.00 Build 0)  -->
<svg version="1.1" id="图层_1" xmlns="http://www.w3.org/2000/svg" xmlns:xlink="http://www.w3.org/1999/xlink" x="0px" y="0px"
	 viewBox="0 0 72 72" style="enable-background:new 0 0 72 72;" xml:space="preserve">
<style type="text/css">
	.st0{clip-path:url(#SVGID_2_);}
	.st1{display:none;}
	.st2{display:inline;}
	.st3{display:inline;clip-path:url(#SVGID_4_);}
	.st4{fill:#CCCCCC;}
	.st5{fill:#278279;}
	.st6{fill:#295148;}
	.st7{opacity:0.7;clip-path:url(#SVGID_6_);}
	.st8{opacity:0.7;clip-path:url(#SVGID_8_);}
	.st9{fill:#0D6954;}
	.st10{fill:#0BA587;}
	.st11{opacity:0.3;clip-path:url(#SVGID_10_);}
	.st12{opacity:0.3;clip-path:url(#SVGID_12_);}
	.st13{opacity:0.3;clip-path:url(#SVGID_14_);}
	.st14{opacity:0.3;clip-path:url(#SVGID_16_);}
	.st15{opacity:0.3;clip-path:url(#SVGID_18_);}
	.st16{opacity:0.3;clip-path:url(#SVGID_20_);}
	.st17{fill:#F9FBED;}
	.st18{fill:#FFFFFF;}
</style>
<g transform="matrix(1.25,0,0,-1.25,0,750)">
	<g>
		<defs>
			<rect id="SVGID_1_" x="-35.3" y="506.9" width="128" height="128"/>
		</defs>
		<clipPath id="SVGID_2_">
			<use xlink:href="#SVGID_1_"  style="overflow:visible;"/>
		</clipPath>
		<g class="st0">
			<g class="st1">
				<defs>
					<rect id="SVGID_3_" x="-3.7" y="536" width="67.4" height="67.4"/>
				</defs>
				<clipPath id="SVGID_4_" class="st2">
					<use xlink:href="#SVGID_3_"  style="overflow:visible;"/>
				</clipPath>
				<g class="st3">
					<path class="st4" d="M29.2,589.7c-5-5-5.7-12.8-1.9-18.5l0,0h0C23.5,576.9,24.2,584.6,29.2,589.7c0.2,0.2,0.4,0.4,0.5,0.5
						C29.5,590,29.4,589.8,29.2,589.7 M4.9,548.8l17.9,17.9c-0.1,0.1-0.1,0.2-0.1,0.4c0,0.3,0.1,0.5,0.3,0.8l2,2
						c-4.4,6.7-3.6,15.8,2.3,21.7c0.9,0.9,1.9,1.7,3,2.4c1.1,0.7,2.2,1.2,3.4,1.7c6.1,2.2,13.3,0.9,18.2-4.1
						c6.8-6.8,6.8-17.8,0-24.6c-5.9-5.9-15-6.7-21.7-2.3l-2-2c-0.3-0.3-0.8-0.4-1.1-0.2L9.1,544.5l-1.6-1.6l-0.2-0.2l-0.1,0.1
						l-4.2,4.2L4.9,548.8z"/>
				</g>
			</g>
			<path class="st5" d="M6,544L6,544l0.2,0.2L6,544L6,544z"/>
			<path class="st5" d="M3.6,550.1l4.3-4.3l-1.6-1.6L6,544l-4.2,4.2L3.6,550.1L3.6,550.1z"/>
			<path class="st6" d="M21.5,567.9c0-0.1,0.1-0.2,0.2-0.3l3.8-3.8c0.1-0.1,0.2-0.2,0.3-0.2L7.9,545.8l-4.3,4.3L21.5,567.9
				L21.5,567.9z"/>
			<path class="st5" d="M21.5,567.9c-0.1,0.1-0.1,0.2-0.1,0.4l0.4-0.1L21.5,567.9z"/>
			<path class="st5" d="M28.9,565.9l-2-2c-0.3-0.3-0.8-0.4-1.1-0.2l2.6,2.6C28.5,566.2,28.7,566,28.9,565.9"/>
			<path class="st5" d="M21.7,567.6c-0.1,0.1-0.2,0.2-0.2,0.3l0.3,0.3l6.3-1.7c0.1-0.1,0.2-0.2,0.3-0.2l-2.6-2.6
				c-0.1,0-0.2,0.1-0.3,0.2L21.7,567.6L21.7,567.6z"/>
			<path class="st5" d="M21.7,568.2l-0.4,0.1c0,0.3,0.1,0.5,0.3,0.8l2,2c0.1-0.2,0.2-0.4,0.4-0.6L21.7,568.2z"/>
			<g>
				<defs>
					<rect id="SVGID_5_" x="21" y="567.8" width="3.4" height="3.6"/>
				</defs>
				<clipPath id="SVGID_6_">
					<use xlink:href="#SVGID_5_"  style="overflow:visible;"/>
				</clipPath>
				<g class="st7">
					<path class="st5" d="M21.7,568.2l-0.4,0.1c0,0.3,0.1,0.5,0.3,0.8l2,2c0.1-0.2,0.2-0.4,0.4-0.6L21.7,568.2z"/>
				</g>
			</g>
			<path class="st5" d="M26,568.2c0.6-0.6,1.3-1.2,2-1.7l0,0l-6.3,1.7l2.3,2.3C24.7,569.7,25.3,569,26,568.2"/>
			<g>
				<defs>
					<rect id="SVGID_7_" x="20.9" y="566" width="7.9" height="5"/>
				</defs>
				<clipPath id="SVGID_8_">
					<use xlink:href="#SVGID_7_"  style="overflow:visible;"/>
				</clipPath>
				<g class="st8">
					<path class="st5" d="M26,568.2c0.6-0.6,1.3-1.2,2-1.7l0,0l-6.3,1.7l2.3,2.3C24.7,569.7,25.3,569,26,568.2"/>
				</g>
			</g>
			<path class="st9" d="M32.4,596.9l-3.4-1.7C30.1,595.9,31.2,596.4,32.4,596.9"/>
			<path class="st9" d="M28.7,566.7l1.5,1.5c5.7-3.8,13.5-3.1,18.5,1.9c0.2,0.2,0.4,0.4,0.5,0.5c0,0,0,0,0,0c0,0,0,0,0,0
				c0,0,0,0,0,0c5.2,5.8,5,14.7-0.5,20.3c-5.6,5.6-14.5,5.7-20.3,0.5c0,0,0,0,0,0c0,0,0,0,0,0c0,0,0,0,0,0c-0.2-0.2-0.4-0.3-0.5-0.5
				c-5-5-5.7-12.8-1.9-18.5l-1.5-1.5l-0.5,0.5l-0.3-0.3c-4.4,6.7-3.6,15.8,2.3,21.7c0.9,0.9,1.9,1.7,3,2.4l3.4,1.7
				c6.1,2.2,13.3,0.9,18.2-4.1c6.8-6.8,6.8-17.8,0-24.6c-5.9-5.9-15-6.7-21.7-2.3l0.3,0.3L28.7,566.7L28.7,566.7z"/>
			<path class="st9" d="M26,572.4c0.5-0.8,1.2-1.6,1.9-2.3c0.7-0.7,1.5-1.4,2.3-1.9l-1.5-1.5l-4.3,4.3L26,572.4z"/>
			<path class="st9" d="M28.4,566.4l0.7-0.2l-0.3-0.3c-0.2,0.1-0.4,0.2-0.6,0.4L28.4,566.4z"/>
			<path class="st9" d="M28.3,566.3c-0.1,0.1-0.2,0.1-0.3,0.2l0.4-0.1L28.3,566.3L28.3,566.3z"/>
			<path class="st9" d="M28.7,566.7l0.5-0.5L28.7,566.7z"/>
			<path class="st9" d="M24.5,570.9l4.3-4.3L24.5,570.9z"/>
			<path class="st9" d="M29.2,566.2l-0.7,0.2l0.3,0.3L29.2,566.2z"/>
			<path class="st9" d="M26,568.2c-0.7,0.7-1.4,1.5-1.9,2.3l0.4,0.4l4.3-4.3l-0.3-0.3l-0.4,0.1l0,0C27.3,567,26.7,567.6,26,568.2"/>
			<path class="st10" d="M29,571.2c-2.3,2.3-3.7,5.3-4.2,8.3c2.3-1.7,7.4-5.1,13.5-5.1c8.1,0,14.7,6.1,14.7,6.1s-3.6,3.3-8.8,5
				c-1.8,0.6-3.8,1-5.9,1c-2.1,0-4.1-0.4-5.9-1c-3.5-1.2-6.3-3.1-7.7-4.2c-0.1,3.6,1.2,7.2,3.8,10.1c5.8,5.2,14.7,5,20.3-0.5
				c5.6-5.6,5.7-14.5,0.5-20.3C43.5,565.5,34.6,565.7,29,571.2"/>
			<path class="st10" d="M28.5,591.5C28.5,591.5,28.4,591.5,28.5,591.5C28.4,591.5,28.5,591.5,28.5,591.5"/>
			<path class="st10" d="M49.3,570.7C49.3,570.7,49.3,570.7,49.3,570.7C49.3,570.7,49.3,570.7,49.3,570.7"/>
			<path class="st9" d="M28.5,591.5C28.5,591.5,28.5,591.5,28.5,591.5C28.5,591.5,28.5,591.5,28.5,591.5
				C28.5,591.5,28.5,591.5,28.5,591.5"/>
			<g>
				<defs>
					<rect id="SVGID_9_" x="28.4" y="591.5" width="0" height="0"/>
				</defs>
				<clipPath id="SVGID_10_">
					<use xlink:href="#SVGID_9_"  style="overflow:visible;"/>
				</clipPath>
				<g class="st11">
					<path class="st10" d="M28.5,591.5C28.5,591.5,28.5,591.5,28.5,591.5C28.5,591.5,28.5,591.5,28.5,591.5
						C28.5,591.5,28.5,591.5,28.5,591.5"/>
				</g>
			</g>
			<path class="st9" d="M48.7,570.1c0.2,0.2,0.4,0.4,0.5,0.5C49.1,570.5,48.9,570.3,48.7,570.1c-5-5-12.8-5.7-18.5-1.9l0,0
				C36,564.4,43.7,565.1,48.7,570.1"/>
			<g>
				<defs>
					<rect id="SVGID_11_" x="27.9" y="565.2" width="23.8" height="6.1"/>
				</defs>
				<clipPath id="SVGID_12_">
					<use xlink:href="#SVGID_11_"  style="overflow:visible;"/>
				</clipPath>
				<g class="st12">
					<path class="st10" d="M48.7,570.1c0.2,0.2,0.4,0.4,0.5,0.5C49.1,570.5,48.9,570.3,48.7,570.1c-5-5-12.8-5.7-18.5-1.9l0,0
						C36,564.4,43.7,565.1,48.7,570.1"/>
				</g>
			</g>
			<path class="st9" d="M49.3,570.7C49.3,570.7,49.3,570.7,49.3,570.7C49.3,570.7,49.3,570.7,49.3,570.7
				C49.3,570.7,49.3,570.7,49.3,570.7"/>
			<g>
				<defs>
					<rect id="SVGID_13_" x="49.3" y="570.7" width="0" height="0"/>
				</defs>
				<clipPath id="SVGID_14_">
					<use xlink:href="#SVGID_13_"  style="overflow:visible;"/>
				</clipPath>
				<g class="st13">
					<path class="st10" d="M49.3,570.7C49.3,570.7,49.3,570.7,49.3,570.7C49.3,570.7,49.3,570.7,49.3,570.7
						C49.3,570.7,49.3,570.7,49.3,570.7"/>
				</g>
			</g>
			<path class="st9" d="M26,572.4L26,572.4L26,572.4c0.5-0.8,1.2-1.6,1.9-2.3c0.7-0.7,1.5-1.4,2.3-1.9l0,0c-0.8,0.5-1.6,1.2-2.3,1.9
				C27.2,570.8,26.5,571.6,26,572.4"/>
			<g>
				<defs>
					<rect id="SVGID_15_" x="25.5" y="567.7" width="5.3" height="5.3"/>
				</defs>
				<clipPath id="SVGID_16_">
					<use xlink:href="#SVGID_15_"  style="overflow:visible;"/>
				</clipPath>
				<g class="st14">
					<path class="st10" d="M26,572.4L26,572.4L26,572.4c0.5-0.8,1.2-1.6,1.9-2.3c0.7-0.7,1.5-1.4,2.3-1.9l0,0
						c-0.8,0.5-1.6,1.2-2.3,1.9C27.2,570.8,26.5,571.6,26,572.4"/>
				</g>
			</g>
			<path class="st10" d="M30.2,568.2l0.3,0.3l-4.3,4.3l-0.3-0.3c-3.8,5.7-3.1,13.5,1.9,18.5c0.2,0.2,0.4,0.4,0.5,0.5c0,0,0,0,0,0
				c0,0,0,0,0,0c-2.6-2.9-3.8-6.5-3.8-10.1c-0.7-0.5-1.1-0.9-1.1-0.9s0.4-0.4,1.2-1c0.4-3,1.8-6,4.2-8.3c5.6-5.6,14.5-5.7,20.3-0.5
				c0,0,0,0,0,0c0,0,0,0,0,0c-0.2-0.2-0.3-0.4-0.5-0.5C43.7,565.1,36,564.4,30.2,568.2"/>
			<g>
				<defs>
					<polygon id="SVGID_17_" points="49.3,591.5 23.6,591.5 23.6,565.8 49.3,565.8 49.3,591.5 					"/>
				</defs>
				<clipPath id="SVGID_18_">
					<use xlink:href="#SVGID_17_"  style="overflow:visible;"/>
				</clipPath>
				<g class="st15">
					<path class="st10" d="M30.2,568.2l0.3,0.3l-4.3,4.3l-0.3-0.3c-3.8,5.7-3.1,13.5,1.9,18.5c0.2,0.2,0.4,0.4,0.5,0.5c0,0,0,0,0,0
						c0,0,0,0,0,0c-2.6-2.9-3.8-6.5-3.8-10.1c-0.7-0.5-1.1-0.9-1.1-0.9s0.4-0.4,1.2-1c0.4-3,1.8-6,4.2-8.3
						c5.6-5.6,14.5-5.7,20.3-0.5c0,0,0,0,0,0c0,0,0,0,0,0c-0.2-0.2-0.3-0.4-0.5-0.5C43.7,565.1,36,564.4,30.2,568.2"/>
				</g>
			</g>
			<path class="st10" d="M30.5,568.5l-0.3-0.3c-0.8,0.5-1.6,1.2-2.3,1.9c-0.7,0.7-1.4,1.5-1.9,2.3l0.3,0.3L30.5,568.5z"/>
			<g>
				<defs>
					<rect id="SVGID_19_" x="25.4" y="567.6" width="5.7" height="5.7"/>
				</defs>
				<clipPath id="SVGID_20_">
					<use xlink:href="#SVGID_19_"  style="overflow:visible;"/>
				</clipPath>
				<g class="st16">
					<path class="st10" d="M30.5,568.5l-0.3-0.3c-0.8,0.5-1.6,1.2-2.3,1.9c-0.7,0.7-1.4,1.5-1.9,2.3l0.3,0.3L30.5,568.5z"/>
				</g>
			</g>
			<path class="st6" d="M24.7,581.4c0-0.3,0-0.6,0-0.8c0,0,0,0-0.1,0c0,0,0,0,0.1-0.1c1.8-1.5,7.3-5.3,13.6-5.3
				c6.4,0,11.9,4,13.6,5.4c-1.2,1-4.1,3.1-7.7,4.3c0,0.2,0,0.3,0,0.5c0,0.1,0,0.2,0,0.3c5.2-1.7,8.8-5,8.8-5s-6.6-6.1-14.7-6.1
				c-6,0-11.2,3.3-13.5,5.1c-0.8,0.6-1.2,1-1.2,1S24,580.9,24.7,581.4"/>
			<path class="st6" d="M32.4,585.3c0-0.2,0-0.3,0-0.5c-3.6-1.3-6.5-3.3-7.7-4.3c0,0.3,0,0.6,0,0.8c1.4,1.1,4.2,3,7.7,4.2
				C32.4,585.5,32.4,585.4,32.4,585.3"/>
			<path class="st17" d="M38.3,579.4c3.1,0,5.7,2.4,5.9,5.5c3.7-1.3,6.5-3.4,7.7-4.3c-1.8-1.4-7.3-5.4-13.6-5.4
				c-6.3,0-11.7,3.9-13.6,5.3c0,0,0,0.1,0,0.1c1.2,1,4,3,7.7,4.3C32.7,581.8,35.2,579.4,38.3,579.4"/>
			<path class="st6" d="M35.6,583c0.5,0,0.9,0.4,0.9,0.9c0,0.5-0.4,0.9-0.9,0.9c-0.5,0-0.9-0.4-0.9-0.9
				C34.7,583.4,35.1,583,35.6,583 M32.4,585.6c1.8,0.6,3.8,1,5.9,1c2.1,0,4.1-0.4,5.9-1c0-0.1,0-0.2,0-0.3c0-0.2,0-0.3,0-0.5
				c-0.2-3.1-2.8-5.5-5.9-5.5c-3.1,0-5.7,2.4-5.9,5.5c0,0.2,0,0.3,0,0.5C32.4,585.4,32.4,585.5,32.4,585.6"/>
			<path class="st18" d="M35.6,584.8c0.5,0,0.9-0.4,0.9-0.9c0-0.5-0.4-0.9-0.9-0.9c-0.5,0-0.9,0.4-0.9,0.9
				C34.7,584.4,35.1,584.8,35.6,584.8"/>
		</g>
	</g>
</g>
</svg>
